<svg width="20" height="21" viewBox="0 0 20 21" fill="none" xmlns="http://www.w3.org/2000/svg">
<path d="M10.9685 0.994798L13.2243 5.77422C13.3811 6.10663 13.6844 6.33696 14.0353 6.39018L19.0795 7.15665C19.9631 7.29101 20.3157 8.4261 19.6765 9.07741L16.0265 12.7976C15.7729 13.0563 15.6569 13.4293 15.717 13.7944L16.5785 19.0476C16.7295 19.9676 15.8058 20.6691 15.0157 20.2351L10.5042 17.755C10.1905 17.5827 9.8154 17.5827 9.50168 17.755L4.99018 20.2351C4.20002 20.6695 3.27637 19.9676 3.42739 19.0476L4.28889 13.7944C4.34896 13.4293 4.23298 13.0563 3.97933 12.7976L0.329335 9.07741C-0.3098 8.42567 0.0427257 7.29058 0.926334 7.15665L5.97058 6.39018C6.32144 6.33696 6.62473 6.10663 6.7816 5.77422L9.03734 0.994798C9.43201 0.157658 10.5734 0.157658 10.9685 0.994798Z" fill="#E91E63"/>
</svg>
