<svg width="22" height="22" viewBox="0 0 85 91" fill="none" xmlns="http://www.w3.org/2000/svg">
<path d="M75.0006 51.4H64.6006V61.8H75.0006V51.4ZM72.2006 59H67.4006V54.2H72.2006V59Z" fill="#E91E63"/>
<path d="M61.1998 37.6H50.7998V48H61.1998V37.6ZM58.3998 45.2H53.5998V40.4H58.3998V45.2Z" fill="#E91E63"/>
<path d="M19.8 51.4H9.5V61.8H19.9V51.4H19.8ZM17 59H12.2V54.2H17V59Z" fill="#E91E63"/>
<path d="M19.8 65.2H9.5V75.6H19.9V65.2H19.8ZM17 72.8H12.2V68H17V72.8Z" fill="#E91E63"/>
<path d="M75.0006 37.6H64.6006V48H75.0006V37.6ZM72.2006 45.2H67.4006V40.4H72.2006V45.2Z" fill="#E91E63"/>
<path d="M61.1998 65.2H50.7998V75.6H61.1998V65.2ZM58.3998 72.8H53.5998V68H58.3998V72.8Z" fill="#E91E63"/>
<path d="M47.4 51.4H37V61.8H47.4V51.4ZM44.6 59H39.8V54.2H44.6V59Z" fill="#E91E63"/>
<path d="M33.6002 65.2H23.2002V75.6H33.6002V65.2ZM30.8002 72.8H26.0002V68H30.8002V72.8Z" fill="#E91E63"/>
<path d="M47.4 37.6H37V48H47.4V37.6ZM44.6 45.2H39.8V40.4H44.6V45.2Z" fill="#E91E63"/>
<path d="M33.6002 37.6H23.2002V48H33.6002V37.6ZM30.8002 45.2H26.0002V40.4H30.8002V45.2Z" fill="#E91E63"/>
<path d="M61.1998 51.4H50.7998V61.8H61.1998V51.4ZM58.3998 59H53.5998V54.2H58.3998V59Z" fill="#E91E63"/>
<path d="M33.6002 51.4H23.2002V61.8H33.6002V51.4ZM30.8002 59H26.0002V54.2H30.8002V59Z" fill="#E91E63"/>
<path d="M47.4 65.2H37V75.6H47.4V65.2ZM44.6 72.8H39.8V68H44.6V72.8Z" fill="#E91E63"/>
<path d="M79.6 4.4H65.2C64.6 1.9 62.4 0 59.7 0C57 0 54.8 1.9 54.1 4.4H30.3C29.7 1.9 27.4 0 24.7 0C22 0 19.8 1.9 19.1 4.4H4.8C2.2 4.4 0 6.5 0 9.2V85.3C0 87.9 2.1 90.1 4.8 90.1H79.5C82.1 90.1 84.3 88 84.3 85.3V9.1C84.3 6.5 82.2 4.4 79.6 4.4ZM56.8 5.7C56.8 4.1 58.1 2.8 59.7 2.8C61.3 2.8 62.6 4.1 62.6 5.7V9.6C62.6 11.2 61.3 12.5 59.7 12.5C58.1 12.5 56.8 11.2 56.8 9.6V5.7ZM21.8 5.7C21.8 4.1 23.1 2.8 24.7 2.8C26.3 2.8 27.6 4.1 27.6 5.7V9.6C27.6 11.2 26.3 12.5 24.7 12.5C23.1 12.5 21.8 11.2 21.8 9.6V5.7ZM2.9 9.1C2.9 8 3.8 7.2 4.8 7.2H18.9V9.6C18.9 12.8 21.5 15.4 24.7 15.4C25 15.4 25.2 15.4 25.5 15.4C28.4 15 30.6 12.4 30.6 9.4V7.2H53.9V9.6C53.9 12.8 56.5 15.4 59.7 15.4C60 15.4 60.2 15.4 60.5 15.4C63.4 15 65.6 12.4 65.6 9.4V7.2H79.7C80.8 7.2 81.6 8.1 81.6 9.1V26H2.9V9.1ZM81.5 85.2C81.5 86.3 80.6 87.1 79.6 87.1H4.8C3.7 87.1 2.9 86.2 2.9 85.2V29H81.5V85.2Z" fill="#E91E63"/>
</svg>
