<svg width="58" height="50" viewBox="0 0 58 50" fill="none" xmlns="http://www.w3.org/2000/svg">
<path d="M16.3842 1.52651C7.57062 4.80335 0 15.4248 0 24.6904C0 34.1819 7.9096 44.6904 17.2881 47.8542C23.8418 50.0011 29.6045 49.5491 36.7231 46.0463C41.8079 43.5604 46.4407 43.4474 54.5763 45.4813C56.4972 46.0463 57.6271 45.8203 57.6271 45.0294C57.6271 43.2214 51.5254 40.3966 47.6836 40.3966H44.4068L46.5536 35.8768C51.5254 25.9333 49.8305 14.8599 42.0339 7.28923C34.9153 0.283574 25.5367 -1.75033 16.3842 1.52651ZM28.7006 7.17623C32.2034 10.5661 29.7175 16.6678 24.8587 16.6678C22.1469 16.6678 19.2091 13.7299 19.2091 11.018C19.2091 8.30616 22.1469 5.36832 24.8587 5.36832C25.9887 5.36832 27.7966 6.15928 28.7006 7.17623ZM16.2712 16.2158C19.774 19.6057 17.2881 25.7073 12.4294 25.7073C9.71754 25.7073 6.77966 22.7695 6.77966 20.0576C6.77966 17.3457 9.71754 14.4079 12.4294 14.4079C13.5593 14.4079 15.3672 15.1989 16.2712 16.2158ZM41.1299 16.2158C44.6328 19.6057 42.1469 25.7073 37.2881 25.7073C34.5763 25.7073 31.6384 22.7695 31.6384 20.0576C31.6384 15.1989 37.7401 12.7129 41.1299 16.2158ZM26.6667 23.5604C27.7966 25.4813 25.1977 27.6282 23.6158 26.0463C22.2599 24.6904 23.1638 22.3175 24.8587 22.3175C25.4237 22.3175 26.2147 22.8824 26.6667 23.5604ZM20.7909 30.9051C24.2938 34.2949 21.8079 40.3966 16.9492 40.3966C12.0904 40.3966 9.60449 34.2949 13.1074 30.9051C14.0113 29.8881 15.8192 29.0972 16.9492 29.0972C18.0791 29.0972 19.887 29.8881 20.7909 30.9051ZM36.6102 30.9051C40.113 34.2949 37.6271 40.3966 32.7684 40.3966C30.0565 40.3966 27.1186 37.4587 27.1186 34.7468C27.1186 29.8881 33.2203 27.4023 36.6102 30.9051Z" fill="#E91E63"/>
</svg>
