<svg width="74" height="59" viewBox="0 0 74 59" fill="none" xmlns="http://www.w3.org/2000/svg">
<g clip-path="url(#clip0_508_155)">
<path d="M19.3333 2.13332C8.93333 5.99999 0 18.5333 0 29.4667C0 40.6667 9.33333 53.0667 20.4 56.8C28.1333 59.3333 34.9333 58.8 43.3333 54.6667C49.3333 51.7333 54.8 51.6 64.4 54C66.6667 54.6667 68 54.4 68 53.4667C68 51.3333 60.8 48 56.2667 48H52.4L54.9333 42.6667C60.8 30.9333 58.8 17.8667 49.6 8.93332C41.2 0.666651 30.1333 -1.73335 19.3333 2.13332ZM33.8667 8.79999C38 12.8 35.0667 20 29.3333 20C26.1333 20 22.6667 16.5333 22.6667 13.3333C22.6667 10.1333 26.1333 6.66665 29.3333 6.66665C30.6667 6.66665 32.8 7.59999 33.8667 8.79999ZM19.2 19.4667C23.3333 23.4667 20.4 30.6667 14.6667 30.6667C11.4667 30.6667 8 27.2 8 24C8 20.8 11.4667 17.3333 14.6667 17.3333C16 17.3333 18.1333 18.2667 19.2 19.4667ZM48.5333 19.4667C52.6667 23.4667 49.7333 30.6667 44 30.6667C40.8 30.6667 37.3333 27.2 37.3333 24C37.3333 18.2667 44.5333 15.3333 48.5333 19.4667ZM31.4667 28.1333C32.8 30.4 29.7333 32.9333 27.8667 31.0667C26.2667 29.4667 27.3333 26.6667 29.3333 26.6667C30 26.6667 30.9333 27.3333 31.4667 28.1333ZM24.5333 36.8C28.6667 40.8 25.7333 48 20 48C14.2667 48 11.3333 40.8 15.4667 36.8C16.5333 35.6 18.6667 34.6667 20 34.6667C21.3333 34.6667 23.4667 35.6 24.5333 36.8ZM43.2 36.8C47.3333 40.8 44.4 48 38.6667 48C35.4667 48 32 44.5333 32 41.3333C32 35.6 39.2 32.6667 43.2 36.8Z" fill="#E91E63"/>
</g>
<defs>
<clipPath id="clip0_508_155">
<rect width="73.3333" height="58.6667" fill="white"/>
</clipPath>
</defs>
</svg>
